<svg xmlns="http://www.w3.org/2000/svg" viewBox="0 0 860.31 254.54"><defs><style>.cls-1{fill:#385e9d;}.cls-1,.cls-2{fill-rule:evenodd;}.cls-2{fill:#ffb81c;}.cls-3{fill:#385e9c;}</style></defs><g id="Layer_2" data-name="Layer 2"><g id="Layer_1-2" data-name="Layer 1"><path class="cls-1" d="M641.45,6.86,648.32,0l91,91a51.36,51.36,0,0,1,0,72.46l-91,91-91-91a51.38,51.38,0,0,1,0-72.46Z"/><path class="cls-2" d="M747.47,6.86,754.33,0l91,91a51.38,51.38,0,0,1,0,72.46l-91,91-91-91a51.38,51.38,0,0,1,0-72.46Z"/><path class="cls-3" d="M147.06,115.47c-2,42.91-30.33,80.73-76,81.84C17.2,198.63,20.48,153.53,32.3,116L43,82.17H24.52L10.69,126.84C-3,170.91-15.5,252.32,54.08,253c78.18,0,106.76-69.84,114.07-127.74C234.08,135.68,285.5,107.3,328,82.83c31.17-18,58.17-33.77,79.24-31.18L420,11.05c2.5-8-7.8-8.73-21.2-4.85-20.07,5.85-48.74,21.05-65.31,29.47-21.71,11-40.45,20.21-58.37,27.12-38.66,15-81.93,13-126,9.12Z"/><path class="cls-3" d="M258.39,247.15c48.25-33.67,64.18-84.93,80.43-136.11l-19.51,7.48C298.57,175.31,247.33,221.46,179,234l-5.71,13.14Z"/><path class="cls-3" d="M410.66,203.12c-34.2-1.18-40.4-31.75-24.61-82.51,7-22.53,9.85-29.51,16.85-52-8.33,3.64-17.09,6.58-25.42,10.21L356,150.06c-17.05,56.43-5.38,104.38,46,104.38,94.88,0,113.69-165.76,50.65-175.08-22.91-3.38-31.39,12.9-38.1,31.27l-7.22,20c-9.15,25.16,8.44,46.14,32.73,41.49,8.45-1.59,18.35-6.23,25.11-10.7C466.2,185.45,437.11,204.05,410.66,203.12Z"/><path class="cls-3" d="M457.73,0l20,16.71c16.32,13.59,14.65,22.55,0,37.05L460.4,70.92,423.91,36.55Z"/></g></g></svg>