<svg id="Layer_1" data-name="Layer 1" xmlns="http://www.w3.org/2000/svg" viewBox="0 0 215.49 62.98"><defs><style>.cls-1{opacity:0.3;}.cls-2{fill:#fff;}.cls-3{fill:red;}</style></defs><title>Mehrnews-Logo</title><path class="cls-1" d="M599.94,510.18a12.45,12.45,0,0,0-1.53-1,14.32,14.32,0,0,0-1.88-.83,10,10,0,0,0-2-.49,2.13,2.13,0,0,0-1.26.36,5.31,5.31,0,0,0-1.16,1A11.35,11.35,0,0,0,591,510.8q-.5.83-.9,1.63t-.69,1.49L589,515a6.1,6.1,0,0,0-.34,1.06,1.13,1.13,0,0,0,.29,1,1.49,1.49,0,0,0,.32.33.8.8,0,0,1,.17.14s0,.06-.09.1l-.46.23a19.35,19.35,0,0,0-2.69,1.67,24,24,0,0,0-2.19,1.84,21.77,21.77,0,0,0-1.78,1.9c-.33.4-.63.78-.93,1.16a3.75,3.75,0,0,0-1.6-1.31,3.54,3.54,0,0,0-2-.16,5.29,5.29,0,0,0-2,.91,9.18,9.18,0,0,0-1.75,1.64,41.64,41.64,0,0,0-3.83,5.44q-1.74,2.93-3.28,5.76l-.16.19-.19.16a92.77,92.77,0,0,1-12,5.29,98.3,98.3,0,0,1-12.6,3.59,114.44,114.44,0,0,1-13.31,2q-6.84.64-14.1.64l0-.06a40.2,40.2,0,0,1-7.27-.63q-4.11-.69-9.27-2-3.24-.86-5.16,3.06-.95,2-2,3.89t-2.15,3.73a38.72,38.72,0,0,1-2.47,3.5,29.63,29.63,0,0,1-2.91,3.17,9.74,9.74,0,0,0-1.65,1.86,2.84,2.84,0,0,0-.52,1.34.86.86,0,0,0,.37.8,1.76,1.76,0,0,0,1,.24,4.48,4.48,0,0,0,1.45-.31,7.64,7.64,0,0,0,1.63-.87,9.9,9.9,0,0,0,2.16-2.13,24.33,24.33,0,0,0,1.82-2.77q.83-1.47,1.52-3t1.29-2.76a7.67,7.67,0,0,1,.59-1.06,1,1,0,0,1,.53-.41,1.21,1.21,0,0,1,.69.07l1,.34a38.12,38.12,0,0,0,3.85,1.06q2.16.49,4.63.81t5.2.51q2.74.19,5.57.16v.06a95.5,95.5,0,0,0,13.17-.91A112.86,112.86,0,0,0,541,553.58q4.24-1.14,8.21-2.61t7.74-3.27q3.77-1.8,7.39-3.91t7.15-4.51l1-.69a10.24,10.24,0,0,1,1.15-.63q2-.83,4.21-1.64a37.05,37.05,0,0,1,4.9-1.39,7.77,7.77,0,0,0,1.38-.5,6,6,0,0,0,1.2-.84q.6-.54,1.23-1.21a17,17,0,0,0,1.19-1.41,10.53,10.53,0,0,0,1-1.56,6.47,6.47,0,0,0,.59-1.67,3.63,3.63,0,0,0,0-1.7,2.55,2.55,0,0,0-.67-1.19,2.86,2.86,0,0,0-1.18-.67A4.48,4.48,0,0,0,586,524a7.35,7.35,0,0,0-1.62.44c-.33.14-.69.31-1.05.51.08-.09.16-.19.24-.27a13.86,13.86,0,0,1,2.15-1.76,15.7,15.7,0,0,1,2.78-1.41l2.72-1.06,3.15-1.2a15.38,15.38,0,0,0,2.16-1,10.88,10.88,0,0,0,1.86-1.31,8.27,8.27,0,0,0,1.48-1.71,9.41,9.41,0,0,0,1-2.2,3.07,3.07,0,0,0,.16-1,1.84,1.84,0,0,0-.29-.91A3.38,3.38,0,0,0,599.94,510.18Zm-16.47,17.59a6,6,0,0,1,1.22-.11,3.77,3.77,0,0,1,1.19.17,1.21,1.21,0,0,1,.73.59,1.34,1.34,0,0,1-.13,1.16,3.69,3.69,0,0,1-1,1.41,5.13,5.13,0,0,1-1.52.9l-3.24,1.29q-1.61.63-3.24,1.2a4.69,4.69,0,0,1-.69.21,2.31,2.31,0,0,1,.31-.56l.92-1.49a11.17,11.17,0,0,0,.6-1.09q.49-.89.39-1.09t-1.1.34q-2.21,1.2-4.28,2.43l-4.2,2.46-.66.4a.89.89,0,0,1-.29.14s0-.07.07-.2l.44-.66q1.12-1.57,2.19-3.13t2.16-3.1a5.52,5.52,0,0,1,1.65-1.56,3.36,3.36,0,0,1,2.16-.41,2.49,2.49,0,0,1,1.52.63,1.78,1.78,0,0,1,.37,1.57q-.14.66,0,.8t.89-.34a8.23,8.23,0,0,0,.9-.57q.39-.29.79-.54c.27-.17.54-.33.83-.49A4.39,4.39,0,0,1,583.46,527.78ZM567,561.15a11.76,11.76,0,0,1-1.41,3.18,11.16,11.16,0,0,1-1,1.26,7.26,7.26,0,0,1-1.29,1.07,5.3,5.3,0,0,1-3.06.88,4.26,4.26,0,0,1-1.72-.34,3.34,3.34,0,0,1-1.25-1,4.24,4.24,0,0,1-.63-1.4,5.87,5.87,0,0,1-.18-1.39,11,11,0,0,1,.12-1.65,10.47,10.47,0,0,1,.39-1.62q.2-.66.44-1.3t.53-1.27l.52-1.1.41-.87.72-1.54c.09-.18.18-.34.27-.51s.18-.24.25-.24a.12.12,0,0,1,.1.07.41.41,0,0,1,0,.17,1.32,1.32,0,0,1,0,.2.82.82,0,0,1,0,.17l-.17.41-.14.34c0,.1-.08.22-.14.36l-.22.5-.26.6-.27.63-.25.6-.22.49a11.62,11.62,0,0,0-.9,3.6,2.69,2.69,0,0,0,.23,1.13,2.32,2.32,0,0,0,.67.86,3.15,3.15,0,0,0,1.08.54,5,5,0,0,0,1.46.19,5.89,5.89,0,0,0,2.62-.63,6.61,6.61,0,0,0,1.23-.84,6.3,6.3,0,0,0,.9-1,4.25,4.25,0,0,0,.55-.93,2.09,2.09,0,0,0,.18-.76q0-.29-.45-.43l-.35-.11-.26-.08-.22-.07-.22-.1a1.82,1.82,0,0,1-.73-.58,1.61,1.61,0,0,1-.24-.94,6.16,6.16,0,0,1,.59-2.31,11.82,11.82,0,0,1,1.68-2.75,17.59,17.59,0,0,1,1.6-1.79l.44-.39q.25-.21.54-.42l.59-.41.59-.36a4.32,4.32,0,0,1,1.1-.46.22.22,0,0,1,.23.14.41.41,0,0,1,0,.27c0,.13,0,.26-.08.38a2.5,2.5,0,0,1-.12.37,4.38,4.38,0,0,1-.17.43q-.11.25-.26.57l-.24.51a1,1,0,0,1-.12.22q-.24.4-.43.4l-.25-.18a.31.31,0,0,0-.19-.09,2.45,2.45,0,0,0-1,.31,6.35,6.35,0,0,0-1.39,1q-.38.35-.67.68a7.64,7.64,0,0,0-.5.61,3.91,3.91,0,0,0-.31.5.8.8,0,0,0-.11.33.65.65,0,0,0,.21.53l.25.15.41.18.39.17.24.13a1.59,1.59,0,0,1,.51,1.39,9,9,0,0,1-.14,1.53A17,17,0,0,1,567,561.15Zm4.63-1.92a1.29,1.29,0,0,1,0,.4q-.06.55-.26,1.56t-.63,2.52q-.22.76-.43,1.3a5.06,5.06,0,0,1-.47.94,2.64,2.64,0,0,1-.61.66,3.74,3.74,0,0,1-.82.46q-.87.35-1.47.55a6.41,6.41,0,0,1-1,.25.42.42,0,0,1-.25,0,.18.18,0,0,1-.1-.1.22.22,0,0,1,0-.15.68.68,0,0,1,.1-.17q.19-.19.57-.51t1-.77a9.4,9.4,0,0,0,1.46-1.34,8.94,8.94,0,0,0,1-1.44,7.37,7.37,0,0,0,.44-.95q.18-.48.33-1c.1-.32.2-.64.29-1a9.14,9.14,0,0,1,.33-.95,1.28,1.28,0,0,1,.18-.35c.06-.08.12-.12.17-.12S571.63,559.14,571.65,559.23Zm1.92,4.37a1,1,0,0,1,0-.35c0-.17,0-.35.07-.55q.29-1.57.46-3.16a22.1,22.1,0,0,0,.12-3.22,2.84,2.84,0,0,1,0-.47,2.74,2.74,0,0,1,.12-.45q.25-.79.53-1.56l.56-1.56a1.14,1.14,0,0,1,.12-.23c0-.06.08-.09.11-.09s.05,0,.06.09a1,1,0,0,1,0,.3q-.06.64-.08,1.27t0,1.25q0,.63,0,1.25t0,1.27q-.06.77-.15,1.54a9.19,9.19,0,0,1-.32,1.49q-.22.66-.47,1.29t-.57,1.25a3.48,3.48,0,0,1-.38.62C573.63,563.65,573.58,563.66,573.57,563.6Zm16.78-21.44q1.58-1.21,3.11-2.47t3-2.57q1.48-1.32,2.89-2.77l.23-.23.25-.23a1.11,1.11,0,0,1,.22-.14c.06,0,.1,0,.12,0s0,.11,0,.23a3.75,3.75,0,0,1-.23.53,13.61,13.61,0,0,1-1.33,2.1,12.7,12.7,0,0,1-1.67,1.81q-2.44,2.13-4.85,4.09t-4.94,3.86l-1.59,1.18q-.8.59-1.64,1.12a1.75,1.75,0,0,1-.49.29c-.07,0,0-.14.1-.44s.36-.65.54-1a3.44,3.44,0,0,1,.68-.89q.33-.32.91-.81t1.53-1.23ZM578.86,563a3,3,0,0,0-.41.6q-.25.53-.46,1t-.46,1a3.88,3.88,0,0,1-.25.43,2,2,0,0,1-.29.34,2,2,0,0,1-.35.26,2.72,2.72,0,0,1-.46.21,9.78,9.78,0,0,1-1.26.35,9.41,9.41,0,0,1-1.52.17,2.69,2.69,0,0,1-.57,0q-.17,0-.15-.12c0-.06.08-.13.2-.21s.28-.19.48-.31l.53-.32.57-.34.67-.41.82-.52a5.5,5.5,0,0,0,.63-.46,4.66,4.66,0,0,0,.48-.46,3.18,3.18,0,0,0,.37-.51c.11-.18.21-.39.32-.6l.33-.73a5.12,5.12,0,0,1,.36-.68,4.37,4.37,0,0,1,.47-.62,3.75,3.75,0,0,1,.68-.57l.77-.45a5,5,0,0,0,.7-.5,1.5,1.5,0,0,0,.26-.28,1.31,1.31,0,0,0,.15-.29,1.82,1.82,0,0,0,.08-.33c0-.12,0-.24,0-.37q.09-.66.14-1.65t0-2.37a7.55,7.55,0,0,1,.11-1.25,9.72,9.72,0,0,1,.36-1.43l.38-1q.19-.5.41-1a2.63,2.63,0,0,1,.22-.42c.06-.08.09-.1.12-.08s0,.09,0,.19,0,.24-.06.4a15.81,15.81,0,0,0-.18,1.73q-.06,1-.11,2.24c0,.52,0,1-.06,1.54s-.05,1-.1,1.5-.13,1-.22,1.49a10.39,10.39,0,0,1-.41,1.49,8.82,8.82,0,0,1-.5,1.12,3.59,3.59,0,0,1-.73.94,3.14,3.14,0,0,1-.76.51l-.81.39A2,2,0,0,0,578.86,563Zm13.82-23.61c-.07.06-.12.08-.13,0s0-.08,0-.16a1.65,1.65,0,0,1,.18-.35,2.19,2.19,0,0,1,.27-.32,20.6,20.6,0,0,1,1.53-1.4l1.55-1.25a5,5,0,0,1,.54-.39c.12-.07.19-.09.22-.07s0,.07,0,.16a2.26,2.26,0,0,1-.22.32c-.09.12-.21.26-.33.4a5,5,0,0,1-.39.39q-.76.7-1.59,1.33Zm-1.92,23.8a1.11,1.11,0,0,1,.31.68,1.65,1.65,0,0,1-.13.73,3.09,3.09,0,0,1-.46.78,2.71,2.71,0,0,1-.69.63.46.46,0,0,1-.24.1.38.38,0,0,1-.2,0,.75.75,0,0,1-.18-.13l-.18-.17-.33-.27a2.63,2.63,0,0,0-.36-.25q-.21-.18-.21-.31a.81.81,0,0,1,.13-.37c.2-.31.39-.61.57-.91l.55-.92a1.75,1.75,0,0,1,.21-.3.25.25,0,0,1,.18-.09.3.3,0,0,1,.19.08l.25.22A2.86,2.86,0,0,1,590.76,563.21Zm-13.56-7.43a2.68,2.68,0,0,0-.36-.25c-.14-.12-.21-.22-.21-.31a.81.81,0,0,1,.13-.37q.3-.46.57-.91l.55-.92a1.74,1.74,0,0,1,.21-.3.25.25,0,0,1,.18-.09.3.3,0,0,1,.19.08l.25.23a2.85,2.85,0,0,1,.6.55,1.11,1.11,0,0,1,.31.68,1.65,1.65,0,0,1-.13.73,3.08,3.08,0,0,1-.46.78,2.71,2.71,0,0,1-.69.63.46.46,0,0,1-.24.1.38.38,0,0,1-.2,0,.74.74,0,0,1-.18-.13l-.18-.17ZM598,543.57l.24.21a1,1,0,0,1,.3.67,1.85,1.85,0,0,1-.13.75,3.33,3.33,0,0,1-.45.78,2.65,2.65,0,0,1-.67.63.56.56,0,0,1-.26.11.35.35,0,0,1-.19,0,.79.79,0,0,1-.18-.14l-.19-.18-.33-.24-.36-.28c-.15-.1-.23-.2-.22-.3a.9.9,0,0,1,.14-.36q.31-.47.57-.93l.54-.92a1.79,1.79,0,0,1,.22-.3.26.26,0,0,1,.18-.09.3.3,0,0,1,.19.09l.24.22Zm2.91,5.71c.08,0,.11.12.07.3s0,.28-.07.44a3.47,3.47,0,0,1-.13.47,1.93,1.93,0,0,1-.22.43,1.06,1.06,0,0,1-.33.32,2.42,2.42,0,0,1-.3.2,1.38,1.38,0,0,0-.27.19l-1.91,1.77q-1,.89-1.86,1.85-.39.53-.67.86a2.15,2.15,0,0,1-.62.51,2.29,2.29,0,0,1-.78.24,8.94,8.94,0,0,1-1.15.06q-2.57,0-4.81,3-.12.15-.51.72l-1,1.5a10.24,10.24,0,0,1-1,1.23,11.05,11.05,0,0,1-1.14,1.08,23.82,23.82,0,0,1-2.45,1.84,16.12,16.12,0,0,1-2.32,1.26,2.1,2.1,0,0,1-.6.21.26.26,0,0,1-.19-.07q-.16-.17,1-1l1.45-1L582,565q.52-.42,1-.92t1.08-1.1a31.41,31.41,0,0,0,2.46-3.28q.61-.88,1-1.47t.68-.91a12.45,12.45,0,0,1,1.24-1.31,11.5,11.5,0,0,1,1.38-1.08,6.26,6.26,0,0,1,3.32-1.12h.28l.27,0,.29,0,.34,0a.78.78,0,0,0,.24,0,.64.64,0,0,0,.31-.19l.72-.64.55-.52.44-.44.37-.41c.13-.12.19-.2.19-.25s-.11-.1-.34-.17l-1.6-.51a4.07,4.07,0,0,0-.83-.22.82.82,0,0,0-.47.1,1.81,1.81,0,0,0-.41.31,2.18,2.18,0,0,1-.35.31c-.1.07-.17.09-.21.07s0-.08,0-.19a2.17,2.17,0,0,1,.25-.47,6.29,6.29,0,0,1,.39-.58,3.16,3.16,0,0,1,.47-.51,2,2,0,0,1,.57-.34,1.38,1.38,0,0,1,.67-.08,7.55,7.55,0,0,1,.8.13l.78.2.79.21c.27.07.53.12.8.17a.9.9,0,0,0,.31,0,1.17,1.17,0,0,0,.29-.1,1.59,1.59,0,0,0,.27-.17l.26-.21A.4.4,0,0,1,600.94,549.28Zm95.65-11.53c0,8.3-5,19-14.5,19h-.37l0,0a11,11,0,1,1,10.88-14.31,7.82,7.82,0,0,0,.52-2.5,9.3,9.3,0,0,0-1.74-5.53,13.41,13.41,0,0,0-9.9-4.67h-.08a11.39,11.39,0,0,0-8.65,4.31l-4.45,5.44-4,4.86-16.71,20.42v-16L668,524.38h0a15.62,15.62,0,0,1,11.92-5.81c9.05,0,16.4,8.33,16.63,18.69h0c0,.08,0,.17,0,.26S696.59,537.68,696.59,537.75Zm-35-10.67-20.42,24.34h0a15.62,15.62,0,0,1-11.92,5.81c-9.05,0-16.4-8.33-16.63-18.69h0c0-.08,0-.17,0-.26s0-.14,0-.22c0-8.3,5-19,14.5-19h.38l0,0a11,11,0,1,1-10.88,14.31,7.82,7.82,0,0,0-.52,2.5,9.3,9.3,0,0,0,1.74,5.53,13.41,13.41,0,0,0,9.9,4.67h.08a11.39,11.39,0,0,0,8.65-4.31l4.45-5.44,4-4.86,16.71-20.42Z" transform="translate(-481.1 -504.91)"/><path class="cls-2" d="M577.88,533.31a37.05,37.05,0,0,1,4.9-1.39,7.77,7.77,0,0,0,1.38-.5,6,6,0,0,0,1.2-.84q.6-.54,1.23-1.21a17,17,0,0,0,1.19-1.41,10.53,10.53,0,0,0,1-1.56,6.47,6.47,0,0,0,.59-1.67,3.63,3.63,0,0,0,0-1.7,2.55,2.55,0,0,0-.67-1.19,2.86,2.86,0,0,0-1.18-.67A4.48,4.48,0,0,0,586,521a7.35,7.35,0,0,0-1.62.44c-.33.14-.69.31-1.05.51.08-.09.16-.19.24-.27a13.86,13.86,0,0,1,2.15-1.76,15.7,15.7,0,0,1,2.78-1.41l2.72-1.06,3.15-1.2a15.38,15.38,0,0,0,2.16-1,10.88,10.88,0,0,0,1.86-1.31,8.27,8.27,0,0,0,1.48-1.71,9.41,9.41,0,0,0,1-2.2,3.07,3.07,0,0,0,.16-1,1.84,1.84,0,0,0-.29-.91,3.38,3.38,0,0,0-.86-.89,12.45,12.45,0,0,0-1.53-1,14.32,14.32,0,0,0-1.88-.83,10,10,0,0,0-2-.49,2.13,2.13,0,0,0-1.26.36,5.31,5.31,0,0,0-1.16,1A11.35,11.35,0,0,0,591,507.8q-.5.83-.9,1.63t-.69,1.49L589,512a6.1,6.1,0,0,0-.34,1.06,1.13,1.13,0,0,0,.29,1,1.49,1.49,0,0,0,.32.33.8.8,0,0,1,.17.14s0,.06-.09.1l-.46.23a19.35,19.35,0,0,0-2.69,1.67,24,24,0,0,0-2.19,1.84,21.77,21.77,0,0,0-1.78,1.9c-.33.4-.63.78-.93,1.16a3.75,3.75,0,0,0-1.6-1.31,3.54,3.54,0,0,0-2-.16,5.29,5.29,0,0,0-2,.91,9.18,9.18,0,0,0-1.75,1.64,41.64,41.64,0,0,0-3.83,5.44q-1.74,2.93-3.28,5.76l-.16.19-.19.16a92.77,92.77,0,0,1-12,5.29,98.3,98.3,0,0,1-12.6,3.59,114.44,114.44,0,0,1-13.31,2q-6.84.64-14.1.64l0-.06a40.2,40.2,0,0,1-7.27-.63q-4.11-.69-9.27-2-3.24-.86-5.16,3.06-.95,2-2,3.89t-2.15,3.73a38.72,38.72,0,0,1-2.47,3.5,29.63,29.63,0,0,1-2.91,3.17,9.74,9.74,0,0,0-1.65,1.86,2.84,2.84,0,0,0-.52,1.34.86.86,0,0,0,.37.8,1.76,1.76,0,0,0,1,.24,4.48,4.48,0,0,0,1.45-.31,7.64,7.64,0,0,0,1.63-.87,9.9,9.9,0,0,0,2.16-2.13,24.33,24.33,0,0,0,1.82-2.77q.83-1.47,1.52-3t1.29-2.76a7.67,7.67,0,0,1,.59-1.06,1,1,0,0,1,.53-.41,1.21,1.21,0,0,1,.69.07l1,.34a38.12,38.12,0,0,0,3.85,1.06q2.16.49,4.63.81t5.2.51q2.74.19,5.57.16v.06a95.5,95.5,0,0,0,13.17-.91A112.86,112.86,0,0,0,541,550.58q4.24-1.14,8.21-2.61t7.74-3.27q3.77-1.8,7.39-3.91t7.15-4.51l1-.69a10.24,10.24,0,0,1,1.15-.63Q575.64,534.12,577.88,533.31Zm-8.48-.7-.66.4a.89.89,0,0,1-.29.14s0-.07.07-.2l.44-.66q1.12-1.57,2.19-3.13t2.16-3.1a5.52,5.52,0,0,1,1.65-1.56,3.36,3.36,0,0,1,2.16-.41,2.49,2.49,0,0,1,1.52.63,1.78,1.78,0,0,1,.37,1.57q-.14.66,0,.8t.89-.34a8.23,8.23,0,0,0,.9-.57q.39-.29.79-.54c.27-.17.54-.33.83-.49a4.39,4.39,0,0,1,1-.37,6,6,0,0,1,1.22-.11,3.77,3.77,0,0,1,1.19.17,1.21,1.21,0,0,1,.73.59,1.34,1.34,0,0,1-.13,1.16,3.69,3.69,0,0,1-1,1.41,5.13,5.13,0,0,1-1.52.9l-3.24,1.29q-1.61.63-3.24,1.2a4.69,4.69,0,0,1-.69.21,2.31,2.31,0,0,1,.31-.56l.92-1.49a11.17,11.17,0,0,0,.6-1.09q.49-.89.39-1.09t-1.1.34q-2.21,1.2-4.28,2.43ZM567,558.15a11.76,11.76,0,0,1-1.41,3.18,11.16,11.16,0,0,1-1,1.26,7.26,7.26,0,0,1-1.29,1.07,5.3,5.3,0,0,1-3.06.88,4.26,4.26,0,0,1-1.72-.34,3.34,3.34,0,0,1-1.25-1,4.24,4.24,0,0,1-.63-1.4,5.87,5.87,0,0,1-.18-1.39,11,11,0,0,1,.12-1.65,10.47,10.47,0,0,1,.39-1.62q.2-.66.44-1.3t.53-1.27l.52-1.1.41-.87.72-1.54c.09-.18.18-.34.27-.51s.18-.24.25-.24a.12.12,0,0,1,.1.07.41.41,0,0,1,0,.17,1.32,1.32,0,0,1,0,.2.82.82,0,0,1,0,.17l-.17.41-.14.34c0,.1-.08.22-.14.36l-.22.5-.26.6-.27.63-.25.6-.22.49a11.62,11.62,0,0,0-.9,3.6,2.69,2.69,0,0,0,.23,1.13,2.32,2.32,0,0,0,.67.86,3.15,3.15,0,0,0,1.08.54,5,5,0,0,0,1.46.19,5.89,5.89,0,0,0,2.62-.63,6.61,6.61,0,0,0,1.23-.84,6.3,6.3,0,0,0,.9-1,4.25,4.25,0,0,0,.55-.93,2.09,2.09,0,0,0,.18-.76q0-.29-.45-.43l-.35-.11-.26-.08-.22-.07-.22-.1a1.82,1.82,0,0,1-.73-.58,1.61,1.61,0,0,1-.24-.94,6.16,6.16,0,0,1,.59-2.31,11.82,11.82,0,0,1,1.68-2.75,17.59,17.59,0,0,1,1.6-1.79l.44-.39q.25-.21.54-.42l.59-.41.59-.36a4.32,4.32,0,0,1,1.1-.46.22.22,0,0,1,.23.14.41.41,0,0,1,0,.27c0,.13,0,.26-.08.38a2.5,2.5,0,0,1-.12.37,4.38,4.38,0,0,1-.17.43q-.11.25-.26.57l-.24.51a1,1,0,0,1-.12.22q-.24.4-.43.4l-.25-.18a.31.31,0,0,0-.19-.09,2.45,2.45,0,0,0-1,.31,6.35,6.35,0,0,0-1.39,1q-.38.35-.67.68a7.64,7.64,0,0,0-.5.61,3.91,3.91,0,0,0-.31.5.8.8,0,0,0-.11.33.65.65,0,0,0,.21.53l.25.15.41.18.39.17.24.13a1.59,1.59,0,0,1,.51,1.39,9,9,0,0,1-.14,1.53A17,17,0,0,1,567,558.15Zm4.63-1.92a1.29,1.29,0,0,1,0,.4q-.06.55-.26,1.56t-.63,2.52q-.22.76-.43,1.3a5.06,5.06,0,0,1-.47.94,2.64,2.64,0,0,1-.61.66,3.74,3.74,0,0,1-.82.46q-.87.35-1.47.55a6.41,6.41,0,0,1-1,.25.42.42,0,0,1-.25,0,.18.18,0,0,1-.1-.1.22.22,0,0,1,0-.15.68.68,0,0,1,.1-.17q.19-.19.57-.51t1-.77a9.4,9.4,0,0,0,1.46-1.34,8.94,8.94,0,0,0,1-1.44,7.37,7.37,0,0,0,.44-.95q.18-.48.33-1c.1-.32.2-.64.29-1a9.14,9.14,0,0,1,.33-.95,1.28,1.28,0,0,1,.18-.35c.06-.08.12-.12.17-.12S571.63,556.14,571.65,556.23Zm4-7.29s.05,0,.06.09a1,1,0,0,1,0,.3q-.06.64-.08,1.27t0,1.25q0,.63,0,1.25t0,1.27q-.06.77-.15,1.54a9.19,9.19,0,0,1-.32,1.49q-.22.66-.47,1.29t-.57,1.25a3.48,3.48,0,0,1-.38.62c-.08.09-.13.1-.15,0a1,1,0,0,1,0-.35c0-.17,0-.35.07-.55q.29-1.57.46-3.16a22.1,22.1,0,0,0,.12-3.22,2.84,2.84,0,0,1,0-.47,2.74,2.74,0,0,1,.12-.45q.25-.79.53-1.56l.56-1.56a1.14,1.14,0,0,1,.12-.23C575.63,549,575.66,548.95,575.69,548.94Zm22.92-15.33a12.7,12.7,0,0,1-1.67,1.81q-2.44,2.13-4.85,4.09t-4.94,3.86l-1.59,1.18q-.8.59-1.64,1.12a1.75,1.75,0,0,1-.49.29c-.07,0,0-.14.1-.44s.36-.65.54-1a3.44,3.44,0,0,1,.68-.89q.33-.32.91-.81t1.53-1.23l3.17-2.45q1.58-1.21,3.11-2.47t3-2.57q1.48-1.32,2.89-2.77l.23-.23.25-.23a1.11,1.11,0,0,1,.22-.14c.06,0,.1,0,.12,0s0,.11,0,.23a3.75,3.75,0,0,1-.23.53A13.61,13.61,0,0,1,598.61,533.61ZM578.86,560a3,3,0,0,0-.41.6q-.25.53-.46,1t-.46,1a3.88,3.88,0,0,1-.25.43,2,2,0,0,1-.29.34,2,2,0,0,1-.35.26,2.72,2.72,0,0,1-.46.21,9.78,9.78,0,0,1-1.26.35,9.41,9.41,0,0,1-1.52.17,2.69,2.69,0,0,1-.57,0q-.17,0-.15-.12c0-.06.08-.13.2-.21s.28-.19.48-.31l.53-.32.57-.34.67-.41.82-.52a5.5,5.5,0,0,0,.63-.46,4.66,4.66,0,0,0,.48-.46,3.18,3.18,0,0,0,.37-.51c.11-.18.21-.39.32-.6l.33-.73a5.12,5.12,0,0,1,.36-.68,4.37,4.37,0,0,1,.47-.62,3.75,3.75,0,0,1,.68-.57l.77-.45a5,5,0,0,0,.7-.5,1.5,1.5,0,0,0,.26-.28,1.31,1.31,0,0,0,.15-.29,1.82,1.82,0,0,0,.08-.33c0-.12,0-.24,0-.37q.09-.66.14-1.65t0-2.37a7.55,7.55,0,0,1,.11-1.25,9.72,9.72,0,0,1,.36-1.43l.38-1q.19-.5.41-1a2.63,2.63,0,0,1,.22-.42c.06-.08.09-.1.12-.08s0,.09,0,.19,0,.24-.06.4a15.81,15.81,0,0,0-.18,1.73q-.06,1-.11,2.24c0,.52,0,1-.06,1.54s-.05,1-.1,1.5-.13,1-.22,1.49a10.39,10.39,0,0,1-.41,1.49,8.82,8.82,0,0,1-.5,1.12,3.59,3.59,0,0,1-.73.94,3.14,3.14,0,0,1-.76.51l-.81.39A2,2,0,0,0,578.86,560Zm13.82-23.61c-.07.06-.12.08-.13,0s0-.08,0-.16a1.65,1.65,0,0,1,.18-.35,2.19,2.19,0,0,1,.27-.32,20.6,20.6,0,0,1,1.53-1.4l1.55-1.25a5,5,0,0,1,.54-.39c.12-.07.19-.09.22-.07s0,.07,0,.16a2.26,2.26,0,0,1-.22.32c-.09.12-.21.26-.33.4a5,5,0,0,1-.39.39q-.76.7-1.59,1.33Zm-1.92,23.8a1.11,1.11,0,0,1,.31.68,1.65,1.65,0,0,1-.13.73,3.09,3.09,0,0,1-.46.78,2.71,2.71,0,0,1-.69.63.46.46,0,0,1-.24.1.38.38,0,0,1-.2,0,.75.75,0,0,1-.18-.13l-.18-.17-.33-.27a2.63,2.63,0,0,0-.36-.25q-.21-.18-.21-.31a.81.81,0,0,1,.13-.37c.2-.31.39-.61.57-.91l.55-.92a1.75,1.75,0,0,1,.21-.3.25.25,0,0,1,.18-.09.3.3,0,0,1,.19.08l.25.22A2.86,2.86,0,0,1,590.76,560.21Zm-11.46-9.74a1.11,1.11,0,0,1,.31.68,1.65,1.65,0,0,1-.13.73,3.08,3.08,0,0,1-.46.78,2.71,2.71,0,0,1-.69.63.46.46,0,0,1-.24.1.38.38,0,0,1-.2,0,.74.74,0,0,1-.18-.13l-.18-.17-.33-.27a2.68,2.68,0,0,0-.36-.25c-.14-.12-.21-.22-.21-.31a.81.81,0,0,1,.13-.37q.3-.46.57-.91l.55-.92a1.74,1.74,0,0,1,.21-.3.25.25,0,0,1,.18-.09.3.3,0,0,1,.19.08l.25.23A2.85,2.85,0,0,1,579.3,550.47ZM598,540.57l.24.21a1,1,0,0,1,.3.67,1.85,1.85,0,0,1-.13.75,3.33,3.33,0,0,1-.45.78,2.65,2.65,0,0,1-.67.63.56.56,0,0,1-.26.11.35.35,0,0,1-.19,0,.79.79,0,0,1-.18-.14l-.19-.18-.33-.24-.36-.28c-.15-.1-.23-.2-.22-.3a.9.9,0,0,1,.14-.36q.31-.47.57-.93l.54-.92a1.79,1.79,0,0,1,.22-.3.26.26,0,0,1,.18-.09.3.3,0,0,1,.19.09l.24.22Zm2.91,5.71c.08,0,.11.12.07.3s0,.28-.07.44a3.47,3.47,0,0,1-.13.47,1.93,1.93,0,0,1-.22.43,1.06,1.06,0,0,1-.33.32,2.42,2.42,0,0,1-.3.2,1.38,1.38,0,0,0-.27.19l-1.91,1.77q-1,.89-1.86,1.85-.39.53-.67.86a2.15,2.15,0,0,1-.62.51,2.29,2.29,0,0,1-.78.24,8.94,8.94,0,0,1-1.15.06q-2.57,0-4.81,3-.12.15-.51.72l-1,1.5a10.24,10.24,0,0,1-1,1.23,11.05,11.05,0,0,1-1.14,1.08,23.82,23.82,0,0,1-2.45,1.84,16.12,16.12,0,0,1-2.32,1.26,2.1,2.1,0,0,1-.6.21.26.26,0,0,1-.19-.07q-.16-.17,1-1l1.45-1L582,562q.52-.42,1-.92t1.08-1.1a31.41,31.41,0,0,0,2.46-3.28q.61-.88,1-1.47t.68-.91a12.45,12.45,0,0,1,1.24-1.31,11.51,11.51,0,0,1,1.38-1.08,6.26,6.26,0,0,1,3.32-1.12h.28l.27,0,.29,0,.34,0a.78.78,0,0,0,.24,0,.64.64,0,0,0,.31-.19l.72-.64.55-.52.44-.44.37-.41c.13-.12.19-.2.19-.25s-.11-.1-.34-.17l-1.6-.51a4.07,4.07,0,0,0-.83-.22.82.82,0,0,0-.47.1,1.81,1.81,0,0,0-.41.31,2.18,2.18,0,0,1-.35.31c-.1.07-.17.09-.21.07s0-.08,0-.19a2.17,2.17,0,0,1,.25-.47,6.29,6.29,0,0,1,.39-.58,3.16,3.16,0,0,1,.47-.51,2,2,0,0,1,.57-.34,1.38,1.38,0,0,1,.67-.08,7.55,7.55,0,0,1,.8.13l.78.2.79.21c.27.07.53.12.8.17a.9.9,0,0,0,.31,0,1.17,1.17,0,0,0,.29-.1,1.59,1.59,0,0,0,.27-.17l.26-.21A.4.4,0,0,1,600.94,546.28Z" transform="translate(-481.1 -504.91)"/><path class="cls-3" d="M696.59,534.75c0,8.3-5,19-14.5,19h-.37l0,0a11,11,0,1,1,10.88-14.31,7.82,7.82,0,0,0,.52-2.5,9.3,9.3,0,0,0-1.74-5.53,13.41,13.41,0,0,0-9.9-4.67h-.08a11.39,11.39,0,0,0-8.65,4.31l-4.45,5.44-4,4.86-16.71,20.42v-16L668,521.38h0a15.62,15.62,0,0,1,11.92-5.81c9.05,0,16.4,8.33,16.63,18.69h0c0,.08,0,.17,0,.26S696.59,534.68,696.59,534.75Zm-84,.51c0,.09,0,.18,0,.26h0c.23,10.36,7.58,18.69,16.63,18.69a15.62,15.62,0,0,0,11.92-5.81h0l20.42-24.34v-16L644.9,528.51l-4,4.86-4.45,5.44a11.39,11.39,0,0,1-8.65,4.31h-.08a13.41,13.41,0,0,1-9.9-4.67,9.3,9.3,0,0,1-1.74-5.53,7.82,7.82,0,0,1,.52-2.5,11,11,0,1,0,10.88-14.31l0,0h-.37c-9.5,0-14.5,10.66-14.5,19C612.61,535.12,612.62,535.19,612.62,535.26Z" transform="translate(-481.1 -504.91)"/></svg>